<?xml version="1.0" encoding="utf-8"?>
<!-- Generator: Adobe Illustrator 16.0.0, SVG Export Plug-In . SVG Version: 6.00 Build 0)  -->
<!DOCTYPE svg PUBLIC "-//W3C//DTD SVG 1.1//EN" "http://www.w3.org/Graphics/SVG/1.1/DTD/svg11.dtd">
<svg version="1.1" id="Layer_1" xmlns="http://www.w3.org/2000/svg" xmlns:xlink="http://www.w3.org/1999/xlink" x="0px" y="0px"
	 width="53.6px" height="100px" viewBox="0 0 53.6 100" style="enable-background:new 0 0 53.6 100;color:#c8c8c8;" xml:space="preserve" fill="currentColor">
<path d="M37.5,43.9c0.2,0.4,0.4,0.7,0.5,1.1l7.5,10.4c0.9,1.2,2.1,1.8,3.6,1.8c0.9,0,1.8-0.4,2.7-0.9c1.2-0.9,1.8-2.1,1.8-3.6
	c0-0.9-0.4-1.8-0.9-2.7l-7.1-9.8l-5.5-15c-1.6-4.5-8.8-5.9-10.9-5.9c-4.3-0.2-9.8,0-13,2.1c-0.4,0.4-0.7,0.5-1.1,1.1l-10,13
	c-0.4,0.4-0.5,0.9-0.7,1.4L0.2,51.4C0,51.8,0,52.1,0,52.7c0,2,1.3,3.7,3.2,4.3c0.4,0.2,0.9,0.2,1.3,0.2c2,0,3.8-1.2,4.3-3.2
	l3.9-13.8l5.2-6.8l-2,11.8c-0.5,3.4,0.2,7.1,1.8,10c1.1,1.8,23.4,38.7,25.9,42.5c0.9,1.4,2.3,2.1,3.7,2.1c0.7,0,1.6-0.2,2.3-0.7
	c2.1-1.3,2.7-4.1,1.4-6.1c-5.4-9.1-14.6-24.6-19.6-32.9l3.9-22.3L37.5,43.9z"/>
<path d="M30.5,0c4.9,0,8.9,4,8.9,8.9c0,4.9-4,8.9-8.9,8.9c-4.9,0-8.9-4-8.9-8.9C21.6,4,25.6,0,30.5,0"/>
<path d="M14.8,57.1l-0.5-1.1l-2.5,14.1c-0.4,2.1-0.7,3.2-1.4,4.3c-1.1,2-8.9,17.3-9.6,18.9c-1.1,2.1-0.2,4.8,2,6.1
	c0.7,0.4,1.2,0.5,2,0.5c1.6,0,3.2-0.9,3.9-2.5c3.4-6.8,8.8-17.3,9.5-18.6c1.4-2.3,2-4.5,2.3-7.1l0.7-3.9
	C17.9,62.1,15.2,57.7,14.8,57.1"/>
</svg>
