<?xml version="1.0" encoding="utf-8"?>
<!-- Generator: Adobe Illustrator 16.0.0, SVG Export Plug-In . SVG Version: 6.00 Build 0)  -->
<!DOCTYPE svg PUBLIC "-//W3C//DTD SVG 1.1//EN" "http://www.w3.org/Graphics/SVG/1.1/DTD/svg11.dtd">
<svg version="1.1" id="Layer_1" xmlns="http://www.w3.org/2000/svg" xmlns:xlink="http://www.w3.org/1999/xlink" x="0px" y="0px"
	 width="90.9px" height="100px" viewBox="0 0 90.9 100" style="enable-background:new 0 0 90.9 100;color:#c8c8c8;" xml:space="preserve" fill="currentColor">
<g id="_x34_4px-Glyph_1_">
	<g id="hou-toilet_1_">
		<path id="Fill-262_1_" d="M38.6,45.4c-1.3,0-2.3-1-2.3-2.3c0-1.3,1-2.3,2.3-2.3h50c1.3,0,2.3,1,2.3,2.3c0,1.3-1,2.3-2.3,2.3H38.6"
			/>
		<path id="Fill-263_1_" d="M31.7,45.4V6.8c0-3.8-3-6.8-6.8-6.8H6.8C3,0,0,3,0,6.8v38.6H31.7z"/>
		<path id="Fill-264_1_" d="M0,50v47.7C0,99,1,100,2.3,100h36.3c1.1,0,1.9-0.8,2.3-1.7c0,0,1.5-5.7,4.8-9.7
			c-4.6-0.8-8.7-2.3-11.8-3.4c-1.1-0.6-1.7-1.9-1.1-3c0.6-1.1,1.9-1.7,3-1.1c3.8,1.7,9.7,3.2,15.6,3.6c0.6,0,1.3,0,1.7,0
			c21.1,0,37.8-14.3,37.8-32.3c0-1.3-1-2.3-2.3-2.3H0z"/>
	</g>
</g>
</svg>
