<?xml version="1.0" encoding="utf-8"?>
<!-- Generator: Adobe Illustrator 16.0.0, SVG Export Plug-In . SVG Version: 6.00 Build 0)  -->
<!DOCTYPE svg PUBLIC "-//W3C//DTD SVG 1.1//EN" "http://www.w3.org/Graphics/SVG/1.1/DTD/svg11.dtd">
<svg version="1.1" id="Layer_1" xmlns="http://www.w3.org/2000/svg" xmlns:xlink="http://www.w3.org/1999/xlink" x="0px" y="0px"
	 width="69.5px" height="100px" viewBox="0 0 69.5 100" style="enable-background:new 0 0 69.5 100;color:#c8c8c8;" xml:space="preserve" fill="currentColor">
<path id="XMLID_404_" d="M69.5,78c0,0,0-63.9,0-65.7c0-2-2.7-2.7-2.7-2.7L33.2,0C29.6,0,30,7.1,30,7.1H3.4c0,0-3.4-0.4-3.4,3.4
	C0,14.3,0,87,0,87s0.5,2.9,2.9,2.9c2.3,0,3.2-1.8,3.2-2.7S5.9,13,5.9,13H30v84.1c0,0,0.2,2.9,3,2.9s33.6-9.6,33.6-9.6
	s2.9-0.5,2.9-2.9S69.5,78,69.5,78z M37.1,53c-1.3,0-2.3-1.4-2.3-3.2c0-1.8,1.1-3.2,2.3-3.2c1.2,0,2.3,1.4,2.3,3.2
	C39.6,51.8,38.6,53,37.1,53z"/>
</svg>
