<?xml version="1.0" encoding="utf-8"?>
<!-- Generator: Adobe Illustrator 16.0.0, SVG Export Plug-In . SVG Version: 6.00 Build 0)  -->
<!DOCTYPE svg PUBLIC "-//W3C//DTD SVG 1.1//EN" "http://www.w3.org/Graphics/SVG/1.1/DTD/svg11.dtd">
<svg version="1.1" class="svg" xmlns="http://www.w3.org/2000/svg" xmlns:xlink="http://www.w3.org/1999/xlink" x="0px" y="0px" width="100px" height="100px" viewBox="0 0 100 100" style="enable-background:new 0 0 100 100;color:#c8c8c8;" xml:space="preserve" fill="currentColor">
<g id="XMLID_395_">
	<g id="moon_4_">
		<path id="XMLID_402_" d="M51.8,100C23.3,100,0,76.9,0,48.2C0,27.8,12.7,8.6,31.4,0.3c1.3-0.6,2.9-0.4,3.8,0.6c1,1,1.3,2.5,1,3.8
			c-1.5,4-3.3,10-3.3,16c0,24.6,20,44.6,44.6,44.6c7.1,0,12.5-1,17.5-3.1c1.3-0.6,2.9-0.4,3.8,0.6s1.3,2.5,1,3.8
			C92.4,86.9,73.5,100,51.8,100z"/>
	</g>
	<g>
		<path d="M65.6,31.3l-6.3,7.1H66c0.6,0,1,0.2,1.2,0.4c0.2,0.2,0.4,0.6,0.4,1c0,0.4-0.2,0.8-0.4,1c-0.2,0.2-0.8,0.4-1.2,0.4h-9.4
			c-0.6,0-1.2-0.2-1.5-0.4c-0.4-0.2-0.6-0.8-0.6-1.2s0.2-0.6,0.4-1c0.2-0.4,0.8-0.8,1.3-1.7c0.8-0.8,1.5-1.5,2.1-2.3
			c0.6-0.8,1.2-1.3,1.7-1.9c0.6-0.6,1-1.2,1.3-1.5c0.4-0.4,0.6-0.8,0.8-1.2H57c-0.8,0-1.2,0-1.5-0.2c-0.4-0.2-0.6-0.4-0.6-1
			c0-0.4,0.2-0.8,0.4-1c0.2-0.2,0.6-0.4,1.2-0.4h7.9c0.8,0,1.3,0.2,1.7,0.4c0.4,0.2,0.6,0.6,0.6,1.2c0,0.2,0,0.4-0.2,0.6
			c0,0.2-0.2,0.4-0.2,0.6c0,0.2-0.2,0.2-0.4,0.4C66,30.9,65.8,31.1,65.6,31.3z"/>
	</g>
	<g>
		<path d="M88.7,19.6l-10,11.2h10.8c1,0,1.5,0.2,1.9,0.6c0.4,0.4,0.6,1,0.6,1.5c0,0.6-0.2,1.2-0.6,1.5C91,34.8,90.2,35,89.5,35H74.7
			c-1,0-1.7-0.2-2.3-0.8c-0.6-0.4-0.8-1.2-0.8-1.9c0-0.4,0.2-1,0.6-1.3c0.4-0.4,1.2-1.3,2.3-2.7c1.2-1.3,2.3-2.5,3.3-3.7
			c1-1.2,1.9-2.1,2.7-3.1c0.8-1,1.5-1.7,2.1-2.3c0.6-0.6,1-1.2,1.3-1.7h-8.1c-1.2,0-1.9-0.2-2.5-0.4c-0.6-0.2-0.8-0.8-0.8-1.5
			c0-0.6,0.2-1.2,0.6-1.5c0.4-0.4,1-0.6,1.9-0.6h12.5c1.2,0,2.1,0.2,2.7,0.6c0.6,0.4,1,1,1,1.9c0,0.4,0,0.6-0.2,1
			c-0.2,0.4-0.6,0.8-0.6,1c0,0.2-0.4,0.4-0.6,0.8C89.5,18.8,89.1,19.2,88.7,19.6z"/>
	</g>
</g>
</svg>
